<?xml version="1.0" encoding="utf-8"?>
<!-- Generator: Adobe Illustrator 17.1.0, SVG Export Plug-In . SVG Version: 6.00 Build 0)  -->
<!DOCTYPE svg PUBLIC "-//W3C//DTD SVG 1.1//EN" "http://www.w3.org/Graphics/SVG/1.1/DTD/svg11.dtd">
<svg version="1.1" id="_x2014_ÎÓÈ_x5F_1" xmlns="http://www.w3.org/2000/svg" xmlns:xlink="http://www.w3.org/1999/xlink"
	 x="0px" y="0px" viewBox="0 0 255 255.24" enable-background="new 0 0 255 255.24" xml:space="preserve">
<g>
	<path fill="#394A54" d="M252.241,149.045v-44.477l-32.831-8.64c-1.384-4.121-3.05-8.168-5.006-12.109l17.1-29.314l-31.448-31.449
		l-29.314,17.1c-3.941-1.956-7.989-3.62-12.109-5.005l-8.639-32.831h-44.477L96.877,35.15c-4.122,1.385-8.17,3.05-12.111,5.005
		L55.454,23.057L24.003,54.506l17.1,29.313c-1.956,3.941-3.621,7.989-5.006,12.11l-32.83,8.64v44.476l32.83,8.64
		c1.385,4.122,3.05,8.169,5.006,12.11l-17.098,29.313l31.449,31.449l29.312-17.099c3.942,1.955,7.988,3.621,12.11,5.005l8.64,32.83
		h44.477l8.639-32.83c4.121-1.385,8.169-3.05,12.11-5.006l29.313,17.099l31.448-31.449l-17.098-29.312
		c1.955-3.941,3.62-7.989,5.004-12.11L252.241,149.045z M60.678,126.807c0-37.045,30.03-67.076,67.075-67.076
		c37.045,0,67.077,30.031,67.077,67.076c0,37.045-30.032,67.077-67.077,67.077C90.708,193.883,60.678,163.852,60.678,126.807z"/>
	<g>
		<path fill="#394A54" d="M100.275,174.295l13.813-13.814c14.763,6.253,32.477,3.366,44.506-8.667
			c10.845-10.843,14.262-26.296,10.262-40.047l-20.268,20.267l-21.057-1.163l-5.334-5.335l-1.163-21.059l20.261-20.263
			c-13.753-4.003-29.202-0.586-40.041,10.255c-12.037,12.033-14.925,29.746-8.674,44.508l-13.386,13.386
			C84.025,161.501,91.356,169.114,100.275,174.295z"/>
	</g>
</g>
</svg>
